<svg height="20" version="1.0" xmlns="http://www.w3.org/2000/svg" viewBox="0 0 1100 800"><g fill="#FFF" stroke-width="0"><path d="M0 37.5V75h1100V0H0v37.5zM0 400v200h1100V200H0v200zm575.2-130.2 24.6 42.7 50.1.3c27.6.1 50.1.4 50.1.7 0 .3-11 19.6-24.5 42.9-13.5 23.4-24.5 43-24.5 43.6 0 .6 11 20.2 24.5 43.5s24.5 42.6 24.5 42.9c0 .3-22.6.7-50.1.8l-50.1.3-24.7 42.7C561.6 553.7 550.3 573 550 573c-.3 0-11.6-19.2-25.2-42.8l-24.6-42.7-50.1-.3c-27.6-.1-50.1-.5-50.1-.8 0-.3 11-19.6 24.5-42.9C438 420.2 449 400.6 449 400c0-.6-11-20.2-24.5-43.5S400 313.9 400 313.6c0-.3 22.5-.7 50.1-.8l50.1-.3 24.6-42.7c13.6-23.6 24.9-42.8 25.2-42.8.3 0 11.6 19.3 25.2 42.8z"/><path d="M541.5 297.1c-4.4 7.7-8.1 14.4-8.3 15-.2.5 6.5.9 16.8.9s17-.4 16.8-.9c-.7-2.1-16.3-29.1-16.8-29.1-.3 0-4.1 6.3-8.5 14.1zm-92.3 46.1c.9 1.3 4.8 8 8.8 15 4 7.1 7.5 12.8 7.9 12.8.6 0 17.1-28.3 17.1-29.4 0-.3-7.9-.6-17.6-.6h-17.6l1.4 2.2zm49.9 27.3-17 29.5 17 29.5 17.1 29.5h67.6l17.1-29.5 17-29.5-17-29.5-17.1-29.5h-67.6l-17.1 29.5zM617 341.6c0 1.1 16.5 29.4 17.1 29.4.4 0 3.9-5.7 7.9-12.8 4-7 7.9-13.7 8.8-15l1.4-2.2h-17.6c-9.7 0-17.6.3-17.6.6zM456.8 443.7l-8.5 14.8 17 .3c9.3.1 17.2 0 17.4-.2.6-.6-15.9-29.6-16.8-29.6-.3 0-4.4 6.6-9.1 14.7zm168.3-.1c-4.6 8-8.1 14.7-7.9 15 .3.2 8.2.3 17.5.2l17-.3-8.4-14.5c-4.6-8-8.7-14.6-9.1-14.7-.4-.2-4.5 6.3-9.1 14.3zm-91.9 44.3c.7 2.1 16.3 29.1 16.8 29.1s16.1-27 16.8-29.1c.2-.5-6.5-.9-16.8-.9s-17 .4-16.8.9zM0 762.5V800h1100v-75H0v37.5z"/></g><path d="M0 137.5V200h1100V75H0v62.5zm524.9 133.3-24.7 42.7-49.6.5-49.7.5 24.6 42.5c13.5 23.4 24.3 43.1 24 43.9-.3.8-11.2 19.9-24.3 42.4-13 22.6-23.8 41.4-24 41.9-.2.4 22 .9 49.3 1l49.7.3 24.7 42.7c13.5 23.5 24.8 42.8 25.1 42.8.3-.1 11.6-19.3 25.1-42.8l24.6-42.7 49.7-.5 49.7-.5-24.6-42.5C661 419.6 650 400.3 650 400c0-.3 11-19.7 24.5-43l24.5-42.5-49.6-.5-49.6-.5-24.7-42.7C561.6 247.3 550.3 228 550 228c-.3 0-11.6 19.3-25.1 42.8zm34.4 26.5c4.8 8.4 8.7 15.6 8.7 16 0 .4-8.1.7-18 .7s-18-.3-18-.7c0-1.1 17.4-31.3 18-31.3.3 0 4.4 6.9 9.3 15.3zm-75.5 44.5c-1.1 2.8-17.4 30.2-17.9 30.2-.6 0-17.9-29.4-17.9-30.5 0-.3 8.1-.5 18.1-.5 9.9 0 17.9.4 17.7.8zM601 369.6c9.1 15.7 16.6 29.2 16.8 29.9.2.7-7.2 14.4-16.5 30.4L584.5 459h-69l-16.8-29c-9.2-15.9-16.7-29.4-16.7-30 0-.6 7.5-14.1 16.7-30l16.8-29h69l16.5 28.6zm51-28.1c0 1.1-17.3 30.5-17.9 30.5-.5 0-16.8-27.4-17.9-30.2-.2-.4 7.8-.8 17.7-.8 10 0 18.1.2 18.1.5zM475 442.7c4.7 8.1 8.7 15.1 8.8 15.5.2.4-7.8.8-17.7.8-10 0-18.1-.2-18.1-.5 0-1.1 17.3-30.5 17.9-30.5.3 0 4.4 6.6 9.1 14.7zm168.4.3c4.7 8.2 8.6 15.2 8.6 15.5 0 .3-8.1.5-18.1.5-9.9 0-17.9-.4-17.7-.8 1.1-2.8 17.4-30.2 17.9-30.2.4 0 4.5 6.7 9.3 15zM568 486.7c0 1.1-17.4 31.3-18 31.3-.6 0-18-30.2-18-31.3 0-.4 8.1-.7 18-.7s18 .3 18 .7zM0 662.5V725h1100V600H0v62.5z" fill="#03C"/><path d="m450.5 313-50 .5 49.7.3c32.3.1 49.9-.1 50.3-.8.3-.6.5-.9.3-.8-.2.2-22.8.5-50.3.8zm149.4.3c.4.4 23 .6 50.2.5l49.4-.3-50.2-.5c-27.6-.3-49.9-.2-49.4.3zm-59.1.4c5 .2 13.4.2 18.5 0 5-.1.9-.3-9.3-.3-10.2 0-14.3.2-9.2.3zM418 486.7c44.8.7 82.8.7 82.3 0-.2-.4-22.8-.6-50.1-.5-27.3.1-41.8.4-32.2.5zm122.8 0c5 .2 13.4.2 18.5 0 5-.1.9-.3-9.3-.3-10.2 0-14.3.2-9.2.3zm84 0c13.9.2 36.4.2 50 0 13.6-.1 2.2-.2-25.3-.2s-38.6.1-24.7.2z" fill="#69F"/></svg>